<svg width="189" height="46" viewBox="0 0 189 46" fill="none" xmlns="http://www.w3.org/2000/svg">
<path d="M68.8209 25.5015C68.8254 26.1629 68.7055 26.8197 68.4671 27.4398C68.2393 28.0273 67.8989 28.5681 67.4636 29.0337C67.0367 29.4884 66.5194 29.8553 65.9424 30.1125C65.3296 30.37 64.6684 30.5028 64.0001 30.5028C63.3318 30.5028 62.6706 30.37 62.0578 30.1125C61.4801 29.853 60.9627 29.4835 60.5366 29.0261C60.1013 28.5604 59.7609 28.0196 59.5331 27.4321C59.2934 26.8124 59.1735 26.1554 59.1792 25.4939V12H54.0005V25.8152C53.9865 27.0706 54.2428 28.3152 54.7532 29.4698C55.2428 30.569 55.962 31.5588 56.8659 32.3772C57.7869 33.2058 58.8622 33.8583 60.0349 34.3002C62.5873 35.2333 65.4049 35.2333 67.9574 34.3002C69.1297 33.8577 70.2049 33.2052 71.1264 32.3772C72.0302 31.5588 72.7494 30.569 73.2391 29.4698C73.7522 28.3157 74.0112 27.0711 73.9996 25.8152V12H68.8209V25.5015Z" fill="#213D8F"/>
<path d="M80.8265 26.2603C80.8194 25.6192 80.908 24.9806 81.0894 24.3659C81.2552 23.8051 81.5294 23.2826 81.8964 22.8283C82.2552 22.3913 82.7035 22.0371 83.2107 21.79C83.7722 21.534 84.3817 21.4015 84.9982 21.4015C85.6148 21.4015 86.2243 21.534 86.7858 21.79C87.2925 22.038 87.7406 22.3921 88.1001 22.8283C88.4672 23.2821 88.7406 23.8048 88.9045 24.3659C89.0858 24.9806 89.1744 25.6192 89.1674 26.2603V35H93.9989V26.2603C94.0172 25.0323 93.8031 23.8121 93.368 22.6645C92.9493 21.5726 92.3244 20.5723 91.5279 19.7187C90.7203 18.8691 89.7502 18.1924 88.6758 17.7292C86.3341 16.7569 83.7044 16.7569 81.3627 17.7292C80.2886 18.1915 79.3192 18.8684 78.5132 19.7187C77.7121 20.5712 77.0828 21.5716 76.66 22.6645C76.2163 23.8105 75.9925 25.0306 76.0002 26.2603V35H80.8318L80.8265 26.2603Z" fill="#213D8F"/>
<path d="M99.5001 15.9999C99.8345 16.0034 100.166 15.9389 100.475 15.8101C100.77 15.6874 101.037 15.5049 101.258 15.2741C101.481 15.0402 101.663 14.7699 101.796 14.4747C101.931 14.1678 102 13.8362 102 13.5011C102 13.1659 101.931 12.8344 101.796 12.5274C101.534 11.9382 101.064 11.4667 100.475 11.2039C100.168 11.0694 99.8364 11 99.5013 11C99.1661 11 98.8346 11.0694 98.5276 11.2039C98.2316 11.3364 97.9605 11.5185 97.7259 11.7423C97.4946 11.9639 97.312 12.2313 97.1898 12.5274C97.0622 12.8356 96.9977 13.1663 97.0001 13.4999C96.9972 13.829 97.06 14.1554 97.1846 14.4599C97.3092 14.7645 97.4933 15.0413 97.726 15.274C97.9587 15.5067 98.2354 15.6907 98.54 15.8154C98.8446 15.94 99.171 16.0027 99.5001 15.9999Z" fill="#213D8F"/>
<path d="M102 18H97V35H102V18Z" fill="#213D8F"/>
<path d="M118.038 18L113.501 28.703L108.964 18H104L111.673 35H115.327L123 18H118.038Z" fill="#213D8F"/>
<path d="M138.088 33.2844C138.877 32.754 139.575 32.1002 140.155 31.3483C140.729 30.6045 141.183 29.7763 141.501 28.8936H136.238C135.804 29.4484 135.252 29.9002 134.62 30.216C133.853 30.6004 132.996 30.7698 132.139 30.706C131.283 30.6422 130.46 30.3477 129.76 29.8539C128.982 29.2945 128.384 28.5242 128.036 27.6354H141.842C141.884 27.3632 141.92 27.0962 141.951 26.8317C141.985 26.5557 142.001 26.2779 142 25.9998C142.007 24.7953 141.753 23.6034 141.256 22.5051C140.77 21.4315 140.082 20.4598 139.23 19.6421C138.354 18.8119 137.327 18.1557 136.204 17.7086C133.826 16.7638 131.174 16.7638 128.796 17.7086C127.672 18.155 126.645 18.8114 125.77 19.6421C124.917 20.4591 124.229 21.431 123.744 22.5051C123.254 23.6052 123 24.7952 123 25.9985C123 27.2018 123.254 28.3918 123.744 29.4919C124.229 30.5664 124.916 31.5384 125.77 32.3549C126.645 33.1864 127.672 33.8436 128.796 34.2909C130.932 35.1384 133.298 35.229 135.493 34.5477C136.414 34.2499 137.287 33.8246 138.088 33.2844ZM129.76 22.1431C130.558 21.5801 131.512 21.2777 132.491 21.2777C133.47 21.2777 134.424 21.5801 135.222 22.1431C136.006 22.6982 136.61 23.4682 136.961 24.359H128.036C128.384 23.4711 128.983 22.7018 129.76 22.1431Z" fill="#213D8F"/>
<path d="M152.988 17.0006H152.388C151.218 16.9856 150.058 17.2339 148.982 17.7298C147.982 18.1928 147.08 18.8695 146.328 19.7192C145.588 20.5735 145.006 21.5736 144.615 22.6649C144.201 23.8109 143.993 25.0309 144 26.2606V35H148.5V26.2606C148.497 25.609 148.619 24.9638 148.86 24.3663C149.087 23.793 149.413 23.2713 149.82 22.8287C150.231 22.3893 150.715 22.0371 151.247 21.7904C151.8 21.5319 152.397 21.3997 153 21.4021L152.988 17.0006Z" fill="#213D8F"/>
<path d="M162.896 30.6239C162.471 30.8912 161.987 31.0323 161.494 31.0325C161.004 31.033 160.523 30.9031 160.092 30.6547C159.649 30.4029 159.427 29.9207 159.427 29.208H155.001C154.989 30.055 155.172 30.8922 155.533 31.6466C155.878 32.3602 156.367 32.984 156.963 33.4736C157.588 33.9807 158.293 34.3645 159.044 34.6069C160.646 35.131 162.358 35.131 163.96 34.6069C164.705 34.3617 165.404 33.9781 166.024 33.4736C166.626 32.9856 167.12 32.3617 167.469 31.6466C167.83 30.892 168.012 30.0548 167.999 29.208C168.011 28.5461 167.869 27.8913 167.588 27.3013C167.317 26.7546 166.951 26.2687 166.508 25.8701C166.061 25.4661 165.552 25.1463 165.003 24.9244C164.449 24.6947 163.868 24.5461 163.276 24.4825C162.839 24.4226 162.406 24.3368 161.978 24.2255C161.572 24.1212 161.177 23.974 160.798 23.7861C160.485 23.6359 160.196 23.4339 159.943 23.1874C159.845 23.0998 159.766 22.9915 159.71 22.8694C159.654 22.7472 159.623 22.614 159.618 22.4781C159.618 21.9128 159.81 21.5171 160.193 21.2987C160.598 21.0722 161.049 20.9582 161.506 20.9672C161.739 20.9664 161.972 20.9932 162.2 21.0468C162.418 21.0945 162.624 21.1908 162.804 21.3295C162.989 21.4763 163.137 21.6708 163.233 21.8948C163.349 22.1779 163.405 22.4851 163.397 22.7942H167.824C167.843 21.9764 167.684 21.1649 167.359 20.424C167.034 19.6832 166.551 19.0334 165.95 18.526C165.35 18.0222 164.669 17.6383 163.941 17.3928C162.36 16.8691 160.667 16.8691 159.085 17.3928C158.355 17.6349 157.671 18.0134 157.065 18.5106C156.492 18.9842 156.023 19.5859 155.692 20.2734C155.351 20.9958 155.179 21.7954 155.191 22.604C155.188 23.2687 155.367 23.9197 155.706 24.4773C156.066 25.0725 156.527 25.591 157.065 26.0062C157.664 26.4676 158.319 26.8385 159.013 27.1086C159.741 27.3999 160.499 27.5999 161.27 27.7048C161.858 27.7787 162.423 27.994 162.922 28.3343C163.356 28.6496 163.572 29.0067 163.572 29.4059C163.579 29.6563 163.519 29.9036 163.399 30.1191C163.279 30.3346 163.105 30.5096 162.896 30.6239Z" fill="#213D8F"/>
<path d="M188.256 22.5051C187.77 21.431 187.083 20.4591 186.23 19.6421C185.355 18.8114 184.328 18.155 183.204 17.7086C180.826 16.7638 178.174 16.7638 175.796 17.7086C174.673 18.1545 173.646 18.8109 172.773 19.6421C171.919 20.459 171.23 21.4309 170.744 22.5051C170.254 23.6052 170 24.7952 170 25.9985C170 27.2018 170.254 28.3918 170.744 29.4919C171.23 30.5665 171.918 31.5385 172.773 32.3549C173.646 33.1869 174.673 33.8442 175.796 34.2909C177.932 35.1384 180.297 35.229 182.493 34.5477C183.409 34.2499 184.279 33.8265 185.077 33.2895C185.867 32.7586 186.565 32.1049 187.144 31.3535C187.719 30.6096 188.173 29.7815 188.491 28.8987H183.238C182.804 29.4529 182.253 29.9045 181.623 30.2211C180.968 30.5607 180.24 30.7369 179.501 30.7347C178.518 30.7516 177.555 30.4476 176.762 29.8693C175.984 29.3101 175.385 28.5398 175.036 27.6508H188.842C188.883 27.3786 188.92 27.1116 188.953 26.8471C188.985 26.571 189.001 26.2932 189 26.0152C189.009 24.8055 188.755 23.6082 188.256 22.5051ZM175.036 24.359C175.385 23.47 175.984 22.6998 176.762 22.1405C177.56 21.5775 178.515 21.2751 179.493 21.2751C180.472 21.2751 181.427 21.5775 182.225 22.1405C183.009 22.6967 183.614 23.4675 183.966 24.359H175.036Z" fill="#213D8F"/>
<path d="M41.9012 36.8902C37.4625 41.1707 31.4507 43.44 25.2053 42.9289C24.5086 42.8713 23.8154 42.7785 23.1287 42.6507C21.3235 42.3214 19.5755 41.7439 17.9371 40.9354C17.7113 40.8317 17.3738 40.642 17.1584 40.5256L16.5847 40.1917C16.4549 40.1158 16.1486 39.921 16.0188 39.84C15.8112 39.6983 15.4997 39.4909 15.292 39.334L15.2583 39.3087C14.0057 38.4155 12.8721 37.3736 11.8838 36.2071C11.7852 36.0857 11.5723 35.8125 11.4711 35.7012C11.3698 35.5899 11.1622 35.2812 11.0791 35.1724C10.996 35.0636 10.8195 34.7677 10.7079 34.6285C10.431 34.1984 10.1715 33.7574 9.92918 33.3054C9.88246 33.2093 9.77863 33.0145 9.7319 32.9183C9.61509 32.6932 9.47233 32.3567 9.3659 32.1265C6.94924 26.6089 7.69423 20.1983 11.9617 15.7458C13.6674 13.9209 15.8878 12.6272 18.3447 12.0269C19.0262 11.8569 19.7206 11.7402 20.4213 11.6778C21.0486 11.6322 21.6785 11.6322 22.3058 11.6778L22.5654 11.698C25.6388 11.9738 28.5071 13.5397 30.1891 15.981C30.7667 16.8179 31.1917 17.7456 31.4455 18.7234C31.7407 19.8561 31.7602 21.0403 31.5026 22.1817L30.4124 21.9565C30.5507 21.2287 30.5568 20.4829 30.4305 19.753C30.3039 19.0424 30.0667 18.3548 29.7271 17.714C29.011 16.3631 27.9177 15.237 26.5732 14.4657C25.246 13.7089 23.7465 13.2855 22.2097 13.2336H22.1578C21.6383 13.2106 21.1177 13.2249 20.6004 13.2766C20.125 13.3285 19.654 13.413 19.1909 13.5296C17.0609 14.0366 15.1369 15.1571 13.6697 16.745C10.1654 20.3728 9.39446 25.726 11.2738 30.2924L11.414 30.6415L11.5697 30.983C11.6528 31.1753 11.7981 31.4662 11.8942 31.6585C11.9902 31.8508 12.1096 32.0506 12.2083 32.2302C12.4159 32.5768 12.6288 32.9209 12.8598 33.2422C12.9429 33.3535 13.1194 33.5862 13.1895 33.695C13.2595 33.8038 13.4646 34.0441 13.5373 34.1327C13.8488 34.502 14.2018 34.8916 14.5496 35.2332C14.8975 35.5747 15.2401 35.8757 15.588 36.1793L15.9877 36.493C16.3251 36.746 16.6782 36.999 17.026 37.2368C17.1195 37.295 17.4076 37.4721 17.5062 37.5378C17.6049 37.6036 17.8878 37.7605 17.9968 37.8212C18.1058 37.8819 18.3914 38.0337 18.4978 38.0893L19.017 38.3423L19.5361 38.5751C19.9852 38.7648 20.4836 38.9571 20.9482 39.1038C21.9026 39.4109 22.8834 39.6336 23.8788 39.7692C24.1384 39.8071 24.398 39.8349 24.6576 39.8628C27.1917 40.0906 29.7465 39.7834 32.1479 38.9622C34.5493 38.1411 36.7409 36.8252 38.5735 35.1041C39.1544 34.569 39.7039 34.0022 40.2192 33.4066C38.1332 35.495 35.5242 37.0166 32.6499 37.8212C31.5835 38.1244 30.4916 38.3352 29.387 38.4511C28.1675 38.5381 26.9419 38.5034 25.7296 38.3474C25.2624 38.2816 24.7951 38.1956 24.3357 38.0944C23.7809 37.9672 23.2341 37.8092 22.6978 37.6213C20.3837 36.8195 18.3364 35.4205 16.7742 33.5736C15.9975 32.6552 15.3603 31.6328 14.8819 30.5378L16.2447 29.9508C16.5271 30.5704 16.8678 31.1633 17.2622 31.7217C18.7256 33.7661 20.8239 35.2985 23.2481 36.0933C23.7415 36.2576 24.2442 36.3944 24.7536 36.5031C25.2384 36.6067 25.729 36.6827 26.2228 36.7308C27.1944 36.8244 28.1727 36.832 29.1456 36.7536C30.0238 36.6554 30.8921 36.4862 31.7414 36.2476C34.6305 35.4789 37.2256 33.903 39.2068 31.7141C43.9675 26.6544 45.0473 19.4722 42.6384 13.1147C42.5424 12.8617 42.4334 12.5936 42.3347 12.3558C42.2646 12.1837 42.0751 11.7663 42.0051 11.5968L41.6442 10.8556C41.4755 10.5393 41.3016 10.2054 41.1251 9.89675C41.0265 9.72725 40.8032 9.3503 40.6942 9.19345C40.5852 9.0366 40.4346 8.78363 40.3178 8.62172C40.201 8.45981 39.9518 8.10056 39.8376 7.9513L39.4171 7.40991C39.3055 7.26824 39.007 6.92418 38.8979 6.77745C38.7214 6.58012 38.5215 6.36509 38.3424 6.16776C38.0439 5.85659 37.6779 5.48976 37.3586 5.19883C37.1354 4.98126 36.772 4.67514 36.5306 4.46517C36.0841 4.09834 35.5805 3.70622 35.1029 3.36216L34.5344 2.9675C34.3008 2.81571 33.3664 2.24397 33.1094 2.08206L34.4306 0C34.6902 0.154321 34.9498 0.316227 35.1886 0.470547C35.3729 0.58692 35.7804 0.860144 35.9673 0.976517L36.5929 1.4243C36.8239 1.59633 37.2185 1.90244 37.4443 2.07953C37.6701 2.25661 37.9271 2.47672 38.1529 2.66898C38.3165 2.81318 38.6721 3.13953 38.8356 3.28373C39.0485 3.48865 39.2899 3.71635 39.4975 3.92379C39.6507 4.08064 39.9881 4.42976 40.1335 4.58914C40.3308 4.80924 40.5488 5.05463 40.7409 5.27725L41.3224 5.99067C41.4548 6.16523 41.6468 6.4258 41.7818 6.60289C41.9168 6.77998 42.1842 7.18981 42.301 7.36184C42.4567 7.59459 42.641 7.89817 42.7916 8.1208C42.9421 8.34342 43.1861 8.7988 43.3237 9.04673L43.7442 9.85627C43.8325 10.0409 44.0453 10.5039 44.131 10.681C44.144 10.7164 44.1647 10.762 44.1855 10.8126L46.597 9.66401C50.9734 18.6956 49.3511 29.8775 41.9012 36.8902Z" fill="url(#paint0_linear_2_960)"/>
<path d="M38.559 26.7897C36.9369 30.1541 33.9644 32.9527 30.337 33.9544C29.3738 34.2355 28.3797 34.3965 27.3772 34.4335C26.7057 34.454 26.0337 34.4139 25.3693 34.3138C22.3232 33.8626 19.5538 32.1524 18.0688 29.3997C17.856 29.0114 17.6727 28.6075 17.5205 28.1915C17.0179 26.8332 16.9139 25.3586 17.221 23.9427L18.0485 24.1185C18.0028 24.3734 17.9698 24.6283 17.9495 24.8704C17.8937 25.8959 18.0672 26.921 18.4572 27.8704C18.5453 28.0956 18.647 28.3152 18.7618 28.528C19.3636 29.6473 20.207 30.6173 21.2304 31.367C22.2538 32.1167 23.4311 32.6271 24.6763 32.8609C25.0117 32.9292 25.3507 32.9777 25.6917 33.0062C26.3831 33.0738 27.0793 33.0738 27.7707 33.0062C28.7434 32.8768 29.6971 32.6303 30.6112 32.2722C32.3686 31.5499 33.9152 30.3924 35.1067 28.9077C38.1325 25.2298 38.7037 20.1169 36.9496 15.7355L36.8126 15.3736L36.6628 15.0295C36.579 14.8358 36.4369 14.5401 36.3404 14.349C36.2439 14.1578 36.1297 13.9539 36.0307 13.7704C35.8302 13.4187 35.617 13.072 35.391 12.7356C35.3073 12.6234 35.1372 12.3839 35.0661 12.2794L34.726 11.8308C34.4123 11.4421 34.0794 11.0695 33.7284 10.7144C33.4035 10.3805 33.0481 10.0695 32.6978 9.76369C32.4262 9.53175 32.1444 9.31 31.8525 9.101C31.6621 8.95826 31.4692 8.82063 31.2763 8.69064C31.1823 8.63202 30.9031 8.4536 30.8041 8.38733C30.7051 8.32106 30.4284 8.16304 30.3218 8.10187C30.2152 8.0407 29.9334 7.88777 29.8319 7.8317C29.7304 7.77562 29.441 7.63289 29.3242 7.57682C29.2074 7.52074 28.9257 7.39331 28.8165 7.34233C28.3748 7.15117 27.8824 6.95745 27.4255 6.80707C26.3309 6.44719 25.202 6.20289 24.057 6.07812C23.9656 6.07812 23.8767 6.05518 23.7854 6.04754C21.302 5.82227 18.7995 6.13686 16.4482 6.96989C14.0968 7.80292 11.9518 9.13482 10.1591 10.875C9.51563 11.4882 8.91274 12.1429 8.35428 12.835C10.4789 10.643 12.9971 9.01179 15.9696 8.16814C17.0166 7.86864 18.0876 7.6614 19.1705 7.54878C20.3632 7.45948 21.5619 7.49535 22.7471 7.65583C23.0416 7.69406 23.331 7.74759 23.6229 7.80621C24.3326 7.94785 25.0309 8.14208 25.712 8.38733C27.7782 9.12804 29.6309 10.3685 31.1062 11.999C32.0446 13.0359 32.8039 14.223 33.3527 15.5112L32.02 16.1026C31.6556 15.2843 31.1927 14.5139 30.6416 13.8086C29.2331 12.0074 27.3321 10.6575 25.1713 9.92427C24.532 9.70461 23.8768 9.5342 23.2117 9.41451C22.8969 9.35843 22.5821 9.3151 22.2648 9.28197C21.3147 9.1877 20.3581 9.18002 19.4066 9.25902C18.5481 9.35951 17.6991 9.52999 16.8682 9.76878C14.0431 10.5452 11.5056 12.1336 9.56765 14.3388C4.91472 19.4364 3.85873 26.6699 6.21439 33.0776C6.30831 33.3325 6.41493 33.6026 6.50885 33.8422C6.57992 34.013 6.76269 34.4361 6.83123 34.6069C6.89977 34.7776 7.10538 35.1905 7.18407 35.3511C7.34907 35.6723 7.52168 36.0087 7.69175 36.3197C7.78821 36.4904 8.00398 36.8702 8.11059 37.0282C8.21721 37.1862 8.36444 37.4411 8.47867 37.6042C8.59289 37.7674 8.83658 38.1319 8.94827 38.2771C9.05996 38.4224 9.24019 38.6671 9.3595 38.8226C9.4788 38.9781 9.76057 39.3145 9.86718 39.4598C10.0373 39.6586 10.2327 39.8752 10.4079 40.0766C10.7023 40.3875 11.0602 40.7571 11.3699 41.0502C11.5882 41.272 11.9487 41.5778 12.1822 41.7894C12.6188 42.1615 13.1113 42.554 13.5758 42.9007C13.7357 43.0154 13.9744 43.1861 14.1368 43.2983C14.2307 43.3645 14.9567 43.8921 15.0583 43.961L13.789 46C13.685 45.9337 13.586 45.8726 13.4921 45.8088C13.3144 45.689 12.9133 45.4163 12.7305 45.2991C12.5478 45.1818 12.2939 44.9754 12.1162 44.8479C11.8878 44.6772 11.5045 44.3662 11.2836 44.1878L10.5932 43.5939C10.4307 43.4487 10.0855 43.1173 9.92557 42.9746C9.71488 42.7656 9.48388 42.5387 9.27827 42.3297C9.12596 42.1717 8.79851 41.82 8.65635 41.6594C8.46344 41.4351 8.24767 41.1879 8.05982 40.9636C7.92529 40.7953 7.62068 40.413 7.49376 40.2474C7.36684 40.0817 7.17391 39.8064 7.04446 39.6306C6.915 39.4547 6.64846 39.0392 6.53677 38.8659C6.38446 38.6314 6.20678 38.3256 6.05447 38.086C5.90216 37.8464 5.67117 37.4054 5.53409 37.1557C5.39702 36.9059 5.25487 36.6026 5.12541 36.3375C5.0391 36.154 4.82841 35.6876 4.74718 35.5066C4.73195 35.4735 4.71164 35.4276 4.69387 35.3766L2.33314 36.5312C-1.92634 27.4422 -0.334743 16.1867 6.95307 9.13158C11.2912 4.83175 17.1575 2.55313 23.2548 3.07309C23.7625 3.11557 24.2702 3.18098 24.7779 3.26934C25.487 3.38786 26.1894 3.54355 26.8822 3.73577C27.3569 3.87086 27.8697 4.03398 28.3342 4.20984C28.8622 4.39846 29.4283 4.6508 29.941 4.89039L30.5249 5.18349L31.096 5.50209C31.2179 5.56836 31.5377 5.75697 31.657 5.83343C31.9109 5.994 32.2739 6.23105 32.5302 6.41201L32.5607 6.43496C33.7506 7.26718 34.8371 8.23922 35.7972 9.33039C35.8962 9.43744 36.1272 9.72291 36.2211 9.84015L36.6222 10.3499C36.7618 10.5513 36.9953 10.8597 37.1299 11.0636C37.6106 11.7892 38.0349 12.551 38.3991 13.3422C40.3841 17.5605 40.6202 22.5561 38.559 26.7897Z" fill="url(#paint1_linear_2_960)"/>
<path d="M29 26.3859C26.0233 29.1674 20.6723 28.2571 19.2972 24.4009C18.194 21.5434 20.2832 18.1676 23.561 18.0134C26.3245 17.7909 28.8161 20.3803 27.9261 22.9722C27.4171 24.6335 25.3891 25.7537 23.6383 25.0912C22.3218 24.6613 21.4611 23.1365 22.0394 21.8899C22.4364 20.7874 24.1473 20.2159 25.0187 21.1869C25.1968 21.3803 25.3035 21.6236 25.3225 21.8798L24.7069 21.9202C24.6872 21.7849 24.6263 21.658 24.5316 21.5551C24.4369 21.4522 24.3126 21.3778 24.1739 21.3411C23.1453 21.02 22.2845 22.1503 22.5297 23.0708C22.607 23.3949 22.7698 23.6952 23.0029 23.9433C23.2359 24.1914 23.5316 24.3793 23.8621 24.4894C25.2505 24.9951 26.8361 24.0898 27.2279 22.7648C27.6809 21.4372 26.9614 19.9074 25.6956 19.2246C22.8388 17.6543 19.4864 20.1375 19.8329 23.1188C20.2672 27.0636 25.4531 28.4569 28.3151 25.7487L28.9707 26.3884L29 26.3859Z" fill="url(#paint2_linear_2_960)"/>
<path d="M24 24C25.1046 24 26 23.3284 26 22.5C26 21.6716 25.1046 21 24 21C22.8954 21 22 21.6716 22 22.5C22 23.3284 22.8954 24 24 24Z" fill="url(#paint3_linear_2_960)"/>
<defs>
<linearGradient id="paint0_linear_2_960" x1="28.7744" y1="43.1516" x2="28.2295" y2="0.806649" gradientUnits="userSpaceOnUse">
<stop stop-color="#AE57E4"/>
<stop offset="0.03" stop-color="#A25CE7"/>
<stop offset="0.14" stop-color="#726DF1"/>
<stop offset="0.23" stop-color="#507AF9"/>
<stop offset="0.31" stop-color="#3B82FD"/>
<stop offset="0.37" stop-color="#3385FF"/>
<stop offset="0.41" stop-color="#348CF8"/>
<stop offset="0.59" stop-color="#38A3E0"/>
<stop offset="0.7" stop-color="#39ABD7"/>
<stop offset="1" stop-color="#3ECEB3"/>
</linearGradient>
<linearGradient id="paint1_linear_2_960" x1="20.2671" y1="43.441" x2="19.7041" y2="0.776679" gradientUnits="userSpaceOnUse">
<stop stop-color="#AE57E4"/>
<stop offset="0.03" stop-color="#A25CE7"/>
<stop offset="0.14" stop-color="#726DF1"/>
<stop offset="0.23" stop-color="#507AF9"/>
<stop offset="0.31" stop-color="#3B82FD"/>
<stop offset="0.37" stop-color="#3385FF"/>
<stop offset="0.41" stop-color="#348CF8"/>
<stop offset="0.59" stop-color="#38A3E0"/>
<stop offset="0.7" stop-color="#39ABD7"/>
<stop offset="1" stop-color="#3ECEB3"/>
</linearGradient>
<linearGradient id="paint2_linear_2_960" x1="24.2592" y1="43.3028" x2="23.7313" y2="0.97687" gradientUnits="userSpaceOnUse">
<stop stop-color="#AE57E4"/>
<stop offset="0.03" stop-color="#A25CE7"/>
<stop offset="0.14" stop-color="#726DF1"/>
<stop offset="0.23" stop-color="#507AF9"/>
<stop offset="0.31" stop-color="#3B82FD"/>
<stop offset="0.37" stop-color="#3385FF"/>
<stop offset="0.41" stop-color="#348CF8"/>
<stop offset="0.59" stop-color="#38A3E0"/>
<stop offset="0.7" stop-color="#39ABD7"/>
<stop offset="1" stop-color="#3ECEB3"/>
</linearGradient>
<linearGradient id="paint3_linear_2_960" x1="24.323" y1="40.8622" x2="23.9546" y2="3.66383" gradientUnits="userSpaceOnUse">
<stop stop-color="#AE57E4"/>
<stop offset="0.03" stop-color="#A25CE7"/>
<stop offset="0.14" stop-color="#726DF1"/>
<stop offset="0.23" stop-color="#507AF9"/>
<stop offset="0.31" stop-color="#3B82FD"/>
<stop offset="0.37" stop-color="#3385FF"/>
<stop offset="0.41" stop-color="#348CF8"/>
<stop offset="0.59" stop-color="#38A3E0"/>
<stop offset="0.7" stop-color="#39ABD7"/>
<stop offset="1" stop-color="#3ECEB3"/>
</linearGradient>
</defs>
</svg>
