<svg width="235" height="145" viewBox="0 0 235 145" fill="none" xmlns="http://www.w3.org/2000/svg">
<path d="M24.9454 108.182C24.9531 109.335 24.75 110.479 24.346 111.559C23.9635 112.584 23.3899 113.526 22.6559 114.337C21.9383 115.13 21.0678 115.769 20.0967 116.216C19.0656 116.665 17.9532 116.896 16.8287 116.896C15.7043 116.896 14.5918 116.665 13.5608 116.216C12.5896 115.769 11.7191 115.13 11.0016 114.337C10.2684 113.526 9.69587 112.583 9.31442 111.559C8.90901 110.48 8.70584 109.335 8.71508 108.182V84.6543H0.000580972V108.727C-0.0181783 110.916 0.417546 113.086 1.28019 115.098C2.10093 117.011 3.30666 118.735 4.82233 120.163C6.37275 121.608 8.18402 122.745 10.1595 123.513C14.4565 125.147 19.2039 125.147 23.5009 123.513C25.4756 122.743 27.2866 121.606 28.8381 120.163C30.3528 118.735 31.5575 117.011 32.3772 115.098C33.2413 113.086 33.6771 110.916 33.6569 108.727V84.6543H24.9454V108.182Z" fill="white"/>
<path d="M46.7286 109.162C46.7217 108.083 46.8773 107.009 47.1901 105.976C47.4709 105.034 47.9331 104.156 48.5507 103.39C49.1625 102.656 49.9249 102.061 50.7862 101.646C51.7356 101.216 52.766 100.993 53.8084 100.993C54.8508 100.993 55.8813 101.216 56.8306 101.646C57.6906 102.062 58.4518 102.656 59.0632 103.39C59.6821 104.155 60.1444 105.033 60.4237 105.976C60.7376 107.009 60.8942 108.083 60.8882 109.162V123.882H69.0573V109.162C69.0737 107.095 68.6985 105.044 67.9515 103.118C67.2379 101.278 66.1744 99.5952 64.8199 98.161C63.4529 96.7296 61.8095 95.5908 59.9892 94.8137C56.0297 93.1793 51.5841 93.1793 47.6247 94.8137C45.8087 95.5922 44.1694 96.731 42.8059 98.161C41.4514 99.5952 40.3879 101.278 39.6744 103.118C38.9242 105.044 38.5459 107.095 38.5596 109.162V123.882H46.7286V109.162Z" fill="white"/>
<path d="M78.8026 91.5164C79.4285 91.5226 80.0492 91.4023 80.6276 91.1628C81.1823 90.9324 81.6833 90.5895 82.099 90.1559C82.5177 89.7176 82.8583 89.2109 83.1059 88.6576C83.3569 88.0824 83.4865 87.4616 83.4865 86.8341C83.4865 86.2065 83.3569 85.5857 83.1059 85.0106C82.6196 83.9016 81.7354 83.0152 80.6276 82.5263C80.0529 82.2732 79.4319 82.1426 78.8041 82.1426C78.1762 82.1426 77.5552 82.2732 76.9806 82.5263C76.4273 82.7739 75.9205 83.1144 75.4822 83.5332C75.0477 83.9481 74.7047 84.4493 74.4753 85.0046C74.2361 85.5819 74.1159 86.2016 74.1217 86.8266C74.1157 87.4434 74.2326 88.0552 74.4656 88.6263C74.6986 89.1974 75.043 89.7164 75.4788 90.153C75.9145 90.5895 76.4328 90.935 77.0035 91.1691C77.5742 91.4032 78.1858 91.5213 78.8026 91.5164Z" fill="white"/>
<path d="M82.89 94.459H74.7209V123.869H82.89V94.459Z" fill="white"/>
<path d="M111.479 94.459L103.364 112.973L95.2515 94.459H86.3722L100.097 123.866H106.633L120.355 94.459H111.479Z" fill="white"/>
<path d="M146.307 121.784C147.66 120.867 148.855 119.737 149.846 118.437C150.835 117.145 151.616 115.706 152.159 114.172H143.121C142.376 115.131 141.427 115.913 140.343 116.462C139.215 117.043 137.962 117.341 136.693 117.331C135.002 117.359 133.347 116.833 131.982 115.833C130.645 114.865 129.615 113.532 129.016 111.994H152.759C152.831 111.523 152.897 111.062 152.951 110.606C153.006 110.127 153.033 109.645 153.031 109.162C153.044 107.079 152.608 105.017 151.752 103.117C150.917 101.257 149.733 99.5746 148.264 98.1609C146.76 96.7237 144.995 95.5875 143.064 94.8136C138.974 93.1793 134.412 93.1793 130.322 94.8136C128.391 95.5879 126.625 96.724 125.12 98.1609C123.653 99.5756 122.47 101.258 121.635 103.117C120.791 105.021 120.355 107.081 120.355 109.163C120.355 111.246 120.791 113.305 121.635 115.209C122.469 117.068 123.652 118.75 125.12 120.163C126.625 121.601 128.391 122.738 130.322 123.513C133.997 124.982 138.067 125.136 141.842 123.948C143.425 123.442 144.928 122.713 146.307 121.784ZM131.982 102.506C133.355 101.531 134.996 101.008 136.68 101.008C138.363 101.008 140.005 101.531 141.377 102.506C142.727 103.469 143.768 104.802 144.374 106.345H129.016C129.613 104.802 130.643 103.464 131.982 102.491V102.506Z" fill="white"/>
<path d="M173.074 93.5871H171.983C169.86 93.5607 167.755 93.9782 165.804 94.8128C163.986 95.5906 162.346 96.7294 160.982 98.1601C159.629 99.5954 158.567 101.278 157.853 103.117C157.103 105.043 156.725 107.094 156.739 109.161V123.881H164.908V109.161C164.901 108.065 165.123 106.98 165.561 105.976C166.386 104.024 167.939 102.471 169.891 101.645C170.896 101.209 171.981 100.986 173.077 100.992L173.074 93.5871Z" fill="white"/>
<path d="M189.981 117.169C189.198 117.632 188.305 117.876 187.395 117.876C186.492 117.877 185.603 117.653 184.809 117.223C183.99 116.79 183.581 115.955 183.583 114.718H175.414C175.392 116.183 175.729 117.632 176.394 118.937C177.032 120.171 177.933 121.25 179.034 122.096C180.188 122.973 181.489 123.638 182.876 124.059C185.831 124.966 188.99 124.966 191.944 124.059C193.32 123.633 194.61 122.968 195.756 122.096C196.857 121.25 197.759 120.171 198.396 118.937C199.062 117.632 199.398 116.183 199.376 114.718C199.396 113.573 199.135 112.441 198.615 111.421C198.117 110.476 197.442 109.635 196.625 108.946C195.798 108.25 194.86 107.697 193.85 107.31C192.826 106.914 191.754 106.658 190.662 106.549C189.855 106.438 189.054 106.284 188.264 106.087C187.515 105.904 186.785 105.648 186.086 105.323C185.508 105.065 184.974 104.716 184.506 104.289C184.326 104.138 184.18 103.951 184.076 103.74C183.973 103.529 183.915 103.298 183.907 103.064C183.907 102.085 184.261 101.403 184.968 101.02C185.716 100.63 186.549 100.435 187.392 100.45C187.822 100.45 188.251 100.495 188.672 100.585C189.074 100.671 189.455 100.838 189.79 101.077C190.13 101.332 190.401 101.669 190.578 102.057C190.792 102.545 190.895 103.076 190.877 103.609H199.046C199.075 102.14 198.758 100.684 198.12 99.3596C197.516 98.1432 196.651 97.0742 195.588 96.228C194.481 95.3573 193.227 94.6934 191.884 94.2682C188.967 93.3611 185.844 93.3611 182.927 94.2682C181.579 94.6878 180.316 95.3421 179.196 96.2011C178.138 97.0197 177.274 98.0613 176.664 99.2517C176.035 100.501 175.717 101.884 175.738 103.282C175.734 104.432 176.065 105.558 176.691 106.522C177.355 107.55 178.204 108.445 179.196 109.162C180.3 109.963 181.51 110.604 182.792 111.068C184.137 111.572 185.536 111.92 186.961 112.105C188.046 112.231 189.088 112.603 190.008 113.193C190.807 113.738 191.207 114.355 191.207 115.045C191.224 115.478 191.118 115.908 190.901 116.284C190.684 116.66 190.365 116.967 189.981 117.169Z" fill="white"/>
<path d="M233.386 103.117C232.552 101.257 231.369 99.5748 229.901 98.1609C228.396 96.7234 226.63 95.5871 224.698 94.8136C220.608 93.1793 216.046 93.1793 211.956 94.8136C210.024 95.5871 208.259 96.7234 206.754 98.1609C205.287 99.5756 204.104 101.258 203.269 103.117C202.425 105.021 201.989 107.081 201.989 109.163C201.989 111.246 202.425 113.305 203.269 115.209C204.103 117.068 205.286 118.75 206.754 120.163C208.258 121.601 210.024 122.739 211.956 123.513C215.631 124.982 219.701 125.136 223.476 123.948C225.06 123.436 226.563 122.703 227.941 121.769C229.294 120.852 230.489 119.722 231.48 118.422C232.468 117.135 233.249 115.701 233.793 114.172H224.755C224.01 115.131 223.061 115.913 221.977 116.462C220.849 117.043 219.596 117.341 218.327 117.331C216.635 117.36 214.981 116.834 213.616 115.833C212.279 114.865 211.249 113.532 210.65 111.994H234.393C234.465 111.523 234.531 111.062 234.585 110.606C234.64 110.127 234.667 109.645 234.666 109.162C234.677 107.079 234.24 105.017 233.386 103.117ZM210.65 106.33C211.25 104.792 212.28 103.46 213.616 102.491C214.989 101.516 216.631 100.993 218.314 100.993C219.997 100.993 221.639 101.516 223.011 102.491C224.362 103.453 225.403 104.787 226.008 106.33H210.65Z" fill="white"/>
<path d="M144.176 64.7923C136.576 72.3111 126.283 76.2997 115.59 75.4037C114.394 75.2996 113.204 75.1356 112.024 74.9122C108.936 74.3396 105.946 73.3305 103.142 71.9155C102.755 71.7327 102.18 71.3971 101.796 71.1963C101.581 71.0734 101.017 70.7318 100.81 70.597C100.604 70.4621 100.064 70.1205 99.8425 69.9796C99.4889 69.7309 98.9435 69.3653 98.5989 69.1076L98.542 69.0656C96.4059 67.4926 94.4724 65.6617 92.7852 63.6146C92.6174 63.4048 92.2548 62.9223 92.078 62.7156C91.9012 62.5088 91.5506 61.9754 91.4098 61.7866C91.23 61.5408 90.9453 61.0734 90.7715 60.8306C90.301 60.0754 89.8514 59.2993 89.4469 58.5082C89.366 58.3373 89.1862 57.9927 89.1083 57.8249C88.9075 57.4323 88.6588 56.839 88.4789 56.4374C84.3405 46.743 85.6201 35.4813 92.9381 27.6688C95.8719 24.5222 99.6597 22.1219 103.867 21.1359C105.026 20.8306 106.208 20.6162 107.4 20.4946C108.475 20.4212 109.554 20.4272 110.628 20.5126C110.775 20.5126 110.927 20.5366 111.068 20.5516C116.328 21.031 121.239 23.782 124.116 28.0704C125.106 29.5413 125.834 31.1727 126.268 32.8921C126.774 34.8805 126.808 36.9597 126.367 38.9635L124.5 38.5679C124.735 37.29 124.746 35.9808 124.533 34.6991C124.319 33.4464 123.914 32.2337 123.334 31.1031C122.106 28.7366 120.236 26.7635 117.94 25.4093C115.667 24.0825 113.102 23.3391 110.472 23.2456H110.382C109.482 23.2071 108.581 23.2321 107.685 23.3205C106.87 23.4189 106.063 23.5741 105.27 23.785C101.635 24.6725 98.3497 26.6298 95.8389 29.4039C89.8455 35.775 88.5209 45.1787 91.7394 53.2039L91.9791 53.8033L92.2428 54.4026C92.3867 54.7383 92.6354 55.2537 92.8002 55.5863C92.965 55.919 93.1688 56.2756 93.3396 56.5932C93.6932 57.1926 94.0589 57.7919 94.4514 58.3913C94.5983 58.5861 94.877 58.9906 95.0178 59.1854C95.1587 59.3802 95.4883 59.7997 95.6172 59.9556C96.163 60.6292 96.7431 61.2744 97.3553 61.8885C97.9156 62.4728 98.533 63.0152 99.1533 63.5487C99.3751 63.7344 99.6058 63.9172 99.8395 64.1001C100.418 64.5585 101.023 64.9991 101.638 65.4066C101.799 65.5115 102.291 65.8232 102.459 65.937C102.627 66.0509 103.115 66.3266 103.301 66.4375C103.487 66.5484 103.975 66.8091 104.158 66.908C104.341 67.0069 104.832 67.2526 105.027 67.3455C105.222 67.4384 105.725 67.6662 105.926 67.7561C106.693 68.0887 107.547 68.4273 108.344 68.682C109.978 69.2223 111.657 69.6135 113.361 69.8508C113.804 69.9167 114.26 69.9706 114.694 70.0156C123.541 70.8517 132.099 67.7531 138.518 61.6577C139.513 60.718 140.454 59.7225 141.335 58.676C137.697 62.305 133.409 65.017 128.371 66.4165C126.543 66.941 124.672 67.304 122.78 67.5013C120.692 67.6564 118.594 67.5951 116.519 67.3185C115.719 67.2047 114.922 67.0548 114.122 66.866C113.173 66.6441 112.237 66.3669 111.32 66.0359C107.352 64.6355 103.839 62.1839 101.155 58.9427C99.8267 57.3352 98.7367 55.5447 97.9186 53.6265L100.253 52.5986C100.735 53.6848 101.318 54.7232 101.994 55.7002C104.499 59.2911 108.091 61.9833 112.24 63.3808C113.086 63.6697 113.947 63.9099 114.82 64.1001C115.65 64.2822 116.489 64.4153 117.334 64.4986C118.999 64.6649 120.675 64.6799 122.342 64.5436C123.848 64.3754 125.338 64.0817 126.795 63.6655C131.818 62.338 136.085 59.536 139.579 55.7002C147.727 46.8239 149.576 34.1987 145.453 23.0359C145.288 22.6013 145.102 22.1368 144.934 21.6933C144.811 21.3937 144.491 20.6535 144.368 20.3658L143.748 19.0652C143.448 18.5078 143.148 17.9234 142.849 17.381C142.678 17.0814 142.297 16.4221 142.111 16.1434C141.926 15.8647 141.665 15.4272 141.467 15.1395C141.269 14.8518 140.838 14.2405 140.646 13.9648C140.454 13.6891 140.131 13.2905 139.924 13.0118C139.717 12.7331 139.22 12.1577 139.025 11.903C138.725 11.5524 138.38 11.1778 138.072 10.8332C137.562 10.2848 136.936 9.63449 136.388 9.12804C136.007 8.74745 135.384 8.20804 134.973 7.84244C134.209 7.19515 133.346 6.49691 132.531 5.90356L131.542 5.21131C131.146 4.94161 129.546 3.9407 129.103 3.65601L131.368 0C131.788 0.266709 132.267 0.554395 132.666 0.824101C132.965 1.03087 133.679 1.50735 133.981 1.72312C134.284 1.93888 134.745 2.2865 135.051 2.50527C135.447 2.80494 136.121 3.34735 136.511 3.65901C136.9 3.97067 137.335 4.35724 137.709 4.69587C137.988 4.9446 138.608 5.51997 138.881 5.7747C139.244 6.1343 139.654 6.53587 140.011 6.89847C140.271 7.17117 140.853 7.79749 141.102 8.07019C141.437 8.45677 141.809 8.8853 142.138 9.26888C142.375 9.56856 142.909 10.2308 143.136 10.5215C143.364 10.8122 143.691 11.2857 143.921 11.5973C144.152 11.909 144.611 12.6252 144.82 12.9189C145.087 13.3295 145.399 13.8629 145.66 14.2764C145.92 14.69 146.334 15.4751 146.559 15.9006L147.278 17.3241C147.431 17.6507 147.793 18.4628 147.94 18.7745L148.033 19.0053L152.162 16.9855C159.705 32.8292 156.927 52.4757 144.176 64.7923Z" fill="url(#paint0_linear_2_1083)"/>
<path d="M138.947 46.9559C136.109 52.8235 130.904 57.7022 124.563 59.4463C122.876 59.9391 121.134 60.22 119.378 60.2823C118.203 60.3205 117.026 60.2512 115.863 60.0756C110.511 59.2874 105.674 56.3057 103.085 51.5079C102.715 50.8326 102.395 50.1316 102.126 49.4102C101.249 47.0423 101.068 44.4727 101.605 42.0053L103.052 42.305C102.971 42.739 102.914 43.1772 102.881 43.6175C102.787 45.4059 103.094 47.1928 103.78 48.8468C103.937 49.239 104.115 49.6222 104.314 49.9946C106.358 53.9532 110.328 56.7042 114.67 57.5463C115.264 57.6657 115.865 57.7507 116.468 57.801C117.681 57.9104 118.901 57.9044 120.112 57.7831C121.815 57.5583 123.484 57.1287 125.084 56.5035C128.168 55.3048 130.82 53.1741 132.93 50.6419C138.228 44.2289 139.223 35.3136 136.157 27.6749L135.914 27.0576L135.651 26.4582C135.504 26.1196 135.255 25.6042 135.09 25.2596C134.925 24.9149 134.716 24.5733 134.548 24.2497C134.194 23.6503 133.82 23.033 133.424 22.4516C133.277 22.2538 132.995 21.8373 132.858 21.6545L132.258 20.8813C131.722 20.2251 131.113 19.5328 130.514 18.9365C129.915 18.3401 129.315 17.8097 128.716 17.2763C128.24 16.8747 127.745 16.4881 127.236 16.1225C126.9 15.8768 126.567 15.6341 126.226 15.4093L125.402 14.8789C125.204 14.768 124.745 14.4893 124.557 14.3814C124.368 14.2735 123.876 14.0068 123.697 13.9079L122.792 13.4704C122.615 13.3805 122.093 13.1498 121.893 13.0599C121.116 12.7302 120.259 12.3886 119.456 12.1309C117.541 11.5018 115.566 11.0749 113.562 10.8573L113.085 10.8033C104.221 9.97324 95.6442 13.0928 89.2132 19.1942C88.086 20.2638 87.0299 21.406 86.0517 22.6134C89.7706 18.7896 94.1818 15.9307 99.4021 14.4773C101.231 13.9553 103.102 13.5933 104.994 13.3955C107.082 13.2401 109.18 13.3023 111.254 13.5813C111.767 13.6502 112.276 13.7401 112.785 13.845C114.028 14.0911 115.25 14.4297 116.441 14.8579C120.06 16.1467 123.304 18.3083 125.887 21.151C127.531 22.9584 128.861 25.0277 129.822 27.2734L127.487 28.3042C126.85 26.8732 126.04 25.5256 125.075 24.2916C122.61 21.1515 119.282 18.7981 115.501 17.519C114.381 17.1318 113.232 16.8312 112.066 16.62C111.518 16.5211 110.966 16.4462 110.409 16.3892C107.231 16.0202 104.01 16.3037 100.945 17.2223C95.9199 18.5499 91.6556 21.3548 88.1614 25.1906C80.0192 34.0699 78.1703 46.6892 82.2908 57.855C82.4586 58.2925 82.6414 58.754 82.8062 59.2035C82.9351 59.5032 83.2497 60.2374 83.3726 60.5311C83.4955 60.8247 83.8551 61.544 83.9899 61.8257C84.2896 62.383 84.5893 62.9734 84.8889 63.5158C85.0598 63.8155 85.4373 64.4748 85.6201 64.7475C85.8029 65.0202 86.0696 65.4697 86.2674 65.7514C86.4652 66.0331 86.8937 66.6714 87.0885 66.9261L87.8108 67.879C87.9995 68.1308 88.512 68.7331 88.7098 68.9878C89.0094 69.3385 89.3511 69.716 89.6567 70.0637C90.1722 70.6061 90.7985 71.2624 91.3409 71.7628C91.7245 72.1494 92.3508 72.6828 92.7613 73.0514C93.5255 73.7017 94.3886 74.3939 95.2007 74.9903L96.1806 75.6825C96.3454 75.7964 97.6161 76.7164 97.7959 76.8393L95.6022 80.4294C95.4224 80.3155 95.2486 80.2076 95.0838 80.0997C94.7841 79.8869 94.0709 79.4105 93.7712 79.2007L92.6984 78.4155C92.2999 78.1159 91.6256 77.5735 91.239 77.2618C90.8524 76.9501 90.4179 76.5666 90.0403 76.2309C89.7586 75.9762 89.1413 75.4008 88.8716 75.1491C88.503 74.7865 88.0954 74.3909 87.7388 74.0283C87.4751 73.7496 86.8997 73.1293 86.648 72.8566C86.3124 72.464 85.9348 72.0355 85.6051 71.6579C85.3714 71.3583 84.838 70.693 84.6162 70.4053C84.3945 70.1176 84.0439 69.6411 83.8341 69.3414C83.6243 69.0418 83.1388 68.3136 82.9351 68.0169C82.6654 67.6123 82.3537 67.0789 82.09 66.6594C81.8263 66.2398 81.4187 65.4757 81.191 65.0351C80.9632 64.5946 80.6995 64.0732 80.4747 63.6117C80.3219 63.2911 79.9563 62.4789 79.8125 62.1613C79.7777 62.088 79.7467 62.013 79.7196 61.9365L75.5631 63.9473C68.0713 48.1006 70.8553 28.475 83.6153 16.1765C91.212 8.68465 101.482 4.70799 112.153 5.616C113.052 5.69091 113.951 5.80179 114.85 5.95463C116.092 6.16188 117.323 6.43395 118.536 6.76974C119.366 7.00648 120.265 7.28817 121.077 7.59683C122.003 7.92647 122.992 8.364 123.888 8.78054C124.11 8.88843 124.694 9.1851 124.913 9.29298L125.914 9.84738C126.124 9.96425 126.687 10.3089 126.894 10.4257C127.338 10.7044 127.976 11.121 128.422 11.4356C128.443 11.4465 128.462 11.4596 128.479 11.4746C130.56 12.9258 132.46 14.6199 134.14 16.5211C134.311 16.7099 134.716 17.2043 134.88 17.3931C135.045 17.5819 135.414 18.0824 135.585 18.2922C135.83 18.6458 136.235 19.1912 136.463 19.5388C137.311 20.8024 138.059 22.1299 138.701 23.5095C142.141 30.8634 142.549 39.5719 138.947 46.9559Z" fill="url(#paint1_linear_2_1083)"/>
<path d="M122.222 46.1615C117.263 51.0641 108.335 49.4579 106.04 42.6733C104.203 37.6478 107.685 31.7142 113.166 31.4475C117.772 31.055 121.932 35.607 120.445 40.159C119.597 43.0778 116.214 45.0407 113.295 43.884C111.098 43.1318 109.663 40.4527 110.643 38.2591C111.305 36.3202 114.161 35.3163 115.614 37.0244C115.91 37.3651 116.087 37.7917 116.121 38.2411L115.096 38.31C115.062 38.0745 114.962 37.8535 114.807 37.673C114.652 37.4925 114.449 37.3601 114.221 37.2911C112.507 36.7278 111.071 38.7176 111.479 40.3358C111.607 40.9039 111.878 41.4301 112.264 41.8656C112.651 42.301 113.142 42.6315 113.691 42.8261C116.004 43.7251 118.65 42.1249 119.303 39.7964C120.059 37.462 118.857 34.7739 116.747 33.5692C111.985 30.8092 106.393 35.1755 106.981 40.4167C107.709 47.3482 116.358 49.7965 121.128 45.0347L122.219 46.1615H122.222Z" fill="url(#paint2_linear_2_1083)"/>
<path d="M113.658 42.1695C115.316 42.1695 116.66 40.8251 116.66 39.1668C116.66 37.5084 115.316 36.1641 113.658 36.1641C111.999 36.1641 110.655 37.5084 110.655 39.1668C110.655 40.8251 111.999 42.1695 113.658 42.1695Z" fill="url(#paint3_linear_2_1083)"/>
<path d="M35.0024 134.004H33.6569V144.765H35.0024V134.004Z" fill="white"/>
<path d="M42.9767 137.508C42.6378 137.181 42.2389 136.922 41.802 136.746C40.8814 136.379 39.8547 136.379 38.9341 136.746C38.4968 136.922 38.0978 137.18 37.7594 137.508C37.4223 137.833 37.1534 138.222 36.9683 138.652C36.7688 139.099 36.6667 139.583 36.6686 140.073V144.766H37.9842V139.938C37.9816 139.621 38.046 139.308 38.173 139.018C38.2921 138.741 38.4641 138.489 38.6794 138.278C38.8976 138.067 39.1538 137.899 39.4346 137.783C40.0294 137.548 40.6917 137.548 41.2866 137.783C41.8536 138.013 42.3077 138.457 42.5512 139.018C42.6758 139.309 42.7391 139.622 42.737 139.938V144.766H44.0526V140.064C44.0545 139.574 43.9523 139.09 43.7529 138.643C43.5691 138.219 43.3056 137.833 42.9767 137.508Z" fill="white"/>
<path d="M51.9129 137.508C51.575 137.181 51.1771 136.922 50.7412 136.746C49.8195 136.379 48.7919 136.379 47.8703 136.746C46.9906 137.1 46.2847 137.784 45.9044 138.652C45.705 139.099 45.6028 139.583 45.6048 140.073V144.766H46.9203V139.938C46.9182 139.622 46.9815 139.309 47.1061 139.018C47.3496 138.457 47.8037 138.013 48.3707 137.783C48.9656 137.548 49.6279 137.548 50.2227 137.783C50.7898 138.013 51.2439 138.457 51.4873 139.018C51.612 139.309 51.6752 139.622 51.6731 139.938V144.766H52.9887V140.064C52.9892 139.575 52.8871 139.091 52.689 138.643C52.5058 138.218 52.2423 137.833 51.9129 137.508Z" fill="white"/>
<path d="M61.6944 137.717C61.2981 137.333 60.8323 137.028 60.3218 136.818C59.2395 136.371 58.0239 136.371 56.9415 136.818C55.911 137.247 55.0862 138.057 54.6401 139.081C54.4141 139.605 54.2976 140.17 54.2976 140.741C54.2976 141.312 54.4141 141.877 54.6401 142.401C55.0862 143.424 55.911 144.235 56.9415 144.664C58.0239 145.111 59.2395 145.111 60.3218 144.664C61.3524 144.235 62.1772 143.424 62.6233 142.401C62.8493 141.877 62.9658 141.312 62.9658 140.741C62.9658 140.17 62.8493 139.605 62.6233 139.081C62.4032 138.571 62.0879 138.108 61.6944 137.717ZM61.4127 141.948C61.259 142.317 61.0374 142.654 60.7594 142.94C60.4873 143.223 60.1625 143.449 59.8034 143.606C59.4309 143.768 59.029 143.851 58.6227 143.851C58.2165 143.851 57.8145 143.768 57.442 143.606C57.0835 143.448 56.7589 143.222 56.486 142.94C55.9165 142.345 55.6006 141.552 55.605 140.729C55.6034 140.317 55.6839 139.91 55.8418 139.53C55.9956 139.163 56.2138 138.826 56.486 138.535C56.7576 138.251 57.0824 138.023 57.442 137.864C57.8145 137.702 58.2165 137.618 58.6227 137.618C59.029 137.618 59.4309 137.702 59.8034 137.864C60.1633 138.022 60.4882 138.251 60.7594 138.535C61.0316 138.826 61.2498 139.163 61.4037 139.53C61.5625 139.91 61.644 140.317 61.6434 140.729C61.6475 141.147 61.5691 141.561 61.4127 141.948Z" fill="white"/>
<path d="M67.2262 142.525L64.655 136.693H63.2645L66.9565 144.767H67.4809L71.1879 136.693H69.7974L67.2262 142.525Z" fill="white"/>
<path d="M78.8835 137.717C78.4867 137.332 78.0198 137.027 77.508 136.818C76.4267 136.371 75.212 136.371 74.1307 136.818C73.0985 137.244 72.273 138.056 71.8292 139.08C71.6019 139.604 71.4846 140.17 71.4846 140.741C71.4846 141.312 71.6019 141.877 71.8292 142.401C72.273 143.426 73.0985 144.237 74.1307 144.663C74.6654 144.889 75.2405 145.003 75.8209 144.999C76.409 145.005 76.9909 144.878 77.523 144.627C78.0356 144.383 78.4934 144.038 78.8685 143.612V144.777H80.1541V140.729C80.1576 140.157 80.0412 139.592 79.8125 139.068C79.5911 138.563 79.2758 138.105 78.8835 137.717ZM78.6318 141.939C78.4771 142.308 78.2567 142.645 77.9815 142.934C77.7053 143.217 77.3778 143.445 77.0166 143.606C76.644 143.768 76.2421 143.851 75.8358 143.851C75.4296 143.851 75.0277 143.768 74.6551 143.606C74.2934 143.446 73.9658 143.218 73.6902 142.934C73.4141 142.645 73.1936 142.308 73.0399 141.939C72.7202 141.164 72.7202 140.293 73.0399 139.518C73.1936 139.149 73.4141 138.812 73.6902 138.523C73.9658 138.24 74.2934 138.012 74.6551 137.852C75.0277 137.69 75.4296 137.606 75.8358 137.606C76.2421 137.606 76.644 137.69 77.0166 137.852C77.3778 138.012 77.7053 138.24 77.9815 138.523C78.2567 138.813 78.4771 139.15 78.6318 139.518C78.9473 140.294 78.9473 141.163 78.6318 141.939Z" fill="white"/>
<path d="M83.0549 134.004H81.7364V141.385C81.7344 141.874 81.8366 142.358 82.036 142.805C82.2233 143.234 82.492 143.623 82.8272 143.95C83.1661 144.277 83.565 144.535 84.0019 144.711C84.4573 144.897 84.9453 144.991 85.4373 144.987V143.851C85.1201 143.853 84.8055 143.793 84.5113 143.674C83.9443 143.444 83.4901 143.001 83.2467 142.44C83.1221 142.149 83.0588 141.836 83.0609 141.52V137.828H85.4373V136.692H83.0549V134.004Z" fill="white"/>
<path d="M88.2871 136.693H86.9716V144.764H88.2871V136.693Z" fill="white"/>
<path d="M87.628 133.93C87.4199 133.93 87.2185 134.003 87.058 134.135C86.8976 134.268 86.788 134.452 86.748 134.656C86.708 134.86 86.74 135.072 86.8387 135.255C86.9373 135.438 87.0964 135.582 87.2889 135.661C87.4814 135.74 87.6953 135.749 87.8942 135.688C88.0931 135.627 88.2646 135.499 88.3796 135.326C88.4945 135.152 88.5458 134.944 88.5246 134.737C88.5034 134.53 88.411 134.337 88.2633 134.191C88.1808 134.106 88.0819 134.039 87.9726 133.995C87.8634 133.95 87.7461 133.928 87.628 133.93Z" fill="white"/>
<path d="M97.2235 137.717C96.8257 137.333 96.359 137.028 95.848 136.818C94.7667 136.371 93.552 136.371 92.4707 136.818C91.9597 137.028 91.493 137.333 91.0952 137.717C90.7029 138.104 90.3885 138.563 90.1692 139.068C89.9419 139.592 89.8246 140.158 89.8246 140.729C89.8246 141.3 89.9419 141.865 90.1692 142.389C90.3885 142.894 90.7029 143.353 91.0952 143.74C91.493 144.124 91.9597 144.429 92.4707 144.639C93.552 145.087 94.7667 145.087 95.848 144.639C96.359 144.429 96.8257 144.124 97.2235 143.74C97.6158 143.353 97.9302 142.894 98.1495 142.389C98.3768 141.865 98.4941 141.3 98.4941 140.729C98.4941 140.158 98.3768 139.592 98.1495 139.068C97.9302 138.563 97.6158 138.104 97.2235 137.717ZM96.9388 141.948C96.79 142.317 96.5724 142.653 96.2975 142.94C96.0247 143.222 95.7001 143.447 95.3416 143.606C94.969 143.768 94.5671 143.851 94.1608 143.851C93.7546 143.851 93.3527 143.768 92.9801 143.606C92.6207 143.447 92.2951 143.222 92.0212 142.94C91.4548 142.343 91.1394 141.552 91.1401 140.729C91.1396 140.317 91.2211 139.91 91.3799 139.53C91.5327 139.163 91.7499 138.826 92.0212 138.535C92.294 138.251 92.6198 138.023 92.9801 137.864C93.3527 137.702 93.7546 137.618 94.1608 137.618C94.5671 137.618 94.969 137.702 95.3416 137.864C95.7012 138.023 96.026 138.251 96.2975 138.535C96.5696 138.825 96.7868 139.162 96.9388 139.53C97.0976 139.91 97.1791 140.317 97.1786 140.729C97.1798 141.147 97.0983 141.562 96.9388 141.948Z" fill="white"/>
<path d="M106.094 137.508C105.756 137.181 105.358 136.922 104.922 136.746C104 136.379 102.973 136.379 102.051 136.746C101.614 136.922 101.215 137.181 100.876 137.508C100.541 137.834 100.273 138.223 100.085 138.652C99.8859 139.099 99.7838 139.583 99.7857 140.073V144.766H101.101V139.938C101.098 139.622 101.161 139.308 101.287 139.018C101.53 138.457 101.985 138.013 102.552 137.783C103.147 137.548 103.809 137.548 104.404 137.783C104.684 137.899 104.941 138.067 105.159 138.278C105.374 138.489 105.546 138.741 105.665 139.018C105.792 139.308 105.857 139.621 105.854 139.938V144.766H107.17V140.064C107.172 139.574 107.069 139.09 106.87 138.643C106.688 138.217 106.425 137.832 106.094 137.508Z" fill="white"/>
<path d="M119.45 134.004L116.474 138.562L113.502 134.004H111.991L115.8 139.833V144.765H117.146V139.833L120.958 134.004H119.45Z" fill="white"/>
<path d="M127.907 137.717C127.511 137.333 127.045 137.028 126.535 136.818C125.452 136.371 124.237 136.371 123.154 136.818C122.124 137.247 121.299 138.057 120.853 139.081C120.627 139.605 120.51 140.17 120.51 140.741C120.51 141.312 120.627 141.877 120.853 142.401C121.299 143.424 122.124 144.235 123.154 144.664C124.237 145.111 125.452 145.111 126.535 144.664C127.565 144.235 128.39 143.424 128.836 142.401C129.062 141.877 129.178 141.312 129.178 140.741C129.178 140.17 129.062 139.605 128.836 139.081C128.616 138.571 128.301 138.108 127.907 137.717ZM127.625 141.948C127.476 142.316 127.26 142.652 126.987 142.94C126.714 143.222 126.39 143.448 126.031 143.606C125.659 143.768 125.257 143.851 124.85 143.851C124.444 143.851 124.042 143.768 123.67 143.606C123.311 143.448 122.987 143.222 122.714 142.94C122.438 142.654 122.219 142.317 122.069 141.948C121.91 141.562 121.828 141.147 121.83 140.729C121.829 140.317 121.911 139.91 122.069 139.53C122.222 139.162 122.441 138.825 122.714 138.535C122.985 138.251 123.31 138.023 123.67 137.864C124.042 137.702 124.444 137.618 124.85 137.618C125.257 137.618 125.659 137.702 126.031 137.864C126.391 138.023 126.715 138.251 126.987 138.535C127.259 138.826 127.477 139.163 127.631 139.53C127.79 139.91 127.872 140.317 127.871 140.729C127.87 141.148 127.787 141.562 127.625 141.948Z" fill="white"/>
<path d="M136.547 141.521C136.549 141.837 136.485 142.15 136.361 142.441C136.117 143.002 135.663 143.446 135.096 143.676C134.501 143.911 133.839 143.911 133.244 143.676C132.963 143.56 132.707 143.392 132.489 143.181C132.274 142.97 132.102 142.718 131.983 142.441C131.856 142.151 131.791 141.838 131.794 141.521V136.693H130.478V141.386C130.476 141.876 130.578 142.36 130.778 142.807C130.963 143.237 131.232 143.626 131.569 143.951C131.907 144.278 132.305 144.537 132.741 144.713C133.662 145.08 134.69 145.08 135.612 144.713C136.048 144.537 136.447 144.278 136.786 143.951C137.121 143.625 137.39 143.236 137.577 142.807C137.777 142.36 137.879 141.876 137.877 141.386V136.693H136.562L136.547 141.521Z" fill="white"/>
<path d="M150.76 135.569C150.278 135.081 149.708 134.691 149.079 134.418C148.418 134.129 147.703 133.984 146.981 133.993H143.484V144.754H146.981C147.702 144.761 148.417 144.616 149.079 144.328C149.707 144.055 150.277 143.664 150.76 143.178C151.243 142.688 151.627 142.109 151.89 141.472C152.435 140.127 152.435 138.622 151.89 137.277C151.628 136.64 151.244 136.059 150.76 135.569ZM150.643 141.002C150.441 141.497 150.146 141.948 149.774 142.332C149.402 142.715 148.958 143.02 148.467 143.231C147.956 143.452 147.404 143.564 146.846 143.561H144.841V135.2H146.846C147.392 135.196 147.932 135.303 148.436 135.513C148.939 135.724 149.394 136.034 149.774 136.426C150.147 136.809 150.442 137.261 150.643 137.756C151.059 138.802 151.059 139.968 150.643 141.014V141.002Z" fill="white"/>
<path d="M160.745 137.717C160.347 137.333 159.881 137.028 159.37 136.818C158.288 136.371 157.074 136.371 155.992 136.818C155.481 137.028 155.015 137.333 154.617 137.717C154.224 138.104 153.91 138.563 153.691 139.068C153.463 139.592 153.346 140.158 153.346 140.729C153.346 141.3 153.463 141.865 153.691 142.389C153.91 142.894 154.224 143.353 154.617 143.74C155.015 144.124 155.481 144.429 155.992 144.639C156.527 144.865 157.102 144.979 157.682 144.975C158.12 144.977 158.556 144.912 158.974 144.783C159.38 144.657 159.765 144.474 160.119 144.238C160.464 144.005 160.776 143.726 161.045 143.408C161.312 143.09 161.529 142.732 161.686 142.347H160.251C159.994 142.793 159.626 143.166 159.184 143.429C158.732 143.702 158.213 143.844 157.685 143.839C156.938 143.847 156.217 143.563 155.675 143.048C155.407 142.796 155.184 142.5 155.015 142.173C154.84 141.836 154.731 141.469 154.695 141.091H162.004C162.013 141.032 162.018 140.972 162.019 140.911V140.717C162.023 140.145 161.905 139.579 161.674 139.057C161.453 138.555 161.137 138.1 160.745 137.717ZM154.752 139.968C154.831 139.633 154.964 139.314 155.147 139.024C155.327 138.742 155.549 138.49 155.806 138.277C156.333 137.839 156.997 137.601 157.682 137.606C158.024 137.606 158.363 137.665 158.683 137.783C158.997 137.9 159.289 138.067 159.549 138.277C159.809 138.489 160.034 138.741 160.215 139.024C160.399 139.314 160.532 139.633 160.61 139.968H154.752Z" fill="white"/>
<path d="M166.559 139.968C166.07 139.857 165.598 139.683 165.153 139.452C164.997 139.387 164.862 139.278 164.764 139.139C164.667 139 164.61 138.837 164.602 138.667C164.598 138.517 164.631 138.369 164.697 138.235C164.763 138.1 164.861 137.985 164.983 137.897C165.24 137.698 165.557 137.593 165.882 137.597C166.242 137.573 166.598 137.69 166.874 137.924C166.994 138.041 167.09 138.18 167.155 138.335C167.221 138.489 167.256 138.655 167.257 138.823H168.573C168.576 138.493 168.51 138.166 168.378 137.864C168.251 137.579 168.065 137.325 167.833 137.118C167.586 136.901 167.299 136.736 166.987 136.632C166.631 136.514 166.257 136.456 165.882 136.461C165.512 136.455 165.145 136.515 164.797 136.638C164.494 136.746 164.216 136.911 163.976 137.124C163.757 137.323 163.582 137.564 163.46 137.834C163.341 138.103 163.279 138.394 163.28 138.688C163.274 138.991 163.349 139.29 163.496 139.554C163.653 139.816 163.862 140.042 164.111 140.219C164.406 140.43 164.73 140.598 165.073 140.72C165.489 140.871 165.913 141.001 166.343 141.109C167.191 141.316 167.614 141.772 167.614 142.47C167.614 142.656 167.571 142.84 167.488 143.006C167.404 143.177 167.285 143.327 167.137 143.447C166.983 143.579 166.805 143.68 166.613 143.746C166.196 143.886 165.744 143.886 165.327 143.746C165.136 143.68 164.96 143.578 164.806 143.447C164.658 143.326 164.538 143.176 164.452 143.006C164.369 142.84 164.326 142.656 164.326 142.47H163.011C163.009 142.809 163.088 143.144 163.242 143.447C163.398 143.753 163.614 144.025 163.877 144.247C164.156 144.483 164.476 144.666 164.821 144.786C165.19 144.917 165.58 144.982 165.972 144.978C166.386 144.984 166.799 144.914 167.188 144.771C167.532 144.643 167.848 144.453 168.123 144.211C168.379 143.98 168.583 143.697 168.722 143.381C168.861 143.066 168.931 142.725 168.929 142.38C168.942 142.085 168.89 141.791 168.777 141.519C168.663 141.246 168.491 141.002 168.273 140.804C167.781 140.385 167.192 140.097 166.559 139.968Z" fill="white"/>
<path d="M177.332 137.717C176.935 137.332 176.468 137.027 175.957 136.818C174.875 136.371 173.661 136.371 172.579 136.818C171.547 137.244 170.722 138.056 170.278 139.08C170.05 139.604 169.933 140.17 169.933 140.741C169.933 141.312 170.05 141.877 170.278 142.401C170.722 143.426 171.547 144.237 172.579 144.663C173.114 144.889 173.689 145.003 174.269 144.999C174.707 145.001 175.143 144.936 175.561 144.807C175.967 144.681 176.352 144.498 176.706 144.262C177.051 144.029 177.363 143.75 177.632 143.432C177.899 143.114 178.116 142.756 178.273 142.371H176.841C176.582 142.817 176.213 143.189 175.771 143.453C175.319 143.727 174.8 143.869 174.272 143.863C173.896 143.866 173.522 143.795 173.173 143.656C172.839 143.513 172.534 143.31 172.274 143.057C172.006 142.804 171.784 142.509 171.614 142.182C171.44 141.845 171.332 141.478 171.294 141.1H178.603C178.607 141.04 178.607 140.98 178.603 140.92V140.726C178.606 140.154 178.49 139.589 178.261 139.065C178.039 138.561 177.724 138.104 177.332 137.717ZM171.339 139.968C171.418 139.633 171.551 139.314 171.734 139.024C171.914 138.742 172.136 138.49 172.393 138.277C172.651 138.066 172.941 137.899 173.253 137.783C173.579 137.664 173.923 137.604 174.269 137.606C174.611 137.605 174.95 137.665 175.27 137.783C175.582 137.896 175.873 138.059 176.133 138.265C176.395 138.476 176.619 138.728 176.799 139.012C176.984 139.301 177.117 139.621 177.194 139.956L171.339 139.968Z" fill="white"/>
<path d="M180.991 137.509C180.654 137.835 180.385 138.224 180.197 138.653C179.998 139.1 179.895 139.585 179.897 140.074V144.767H181.228V139.939C181.226 139.623 181.289 139.31 181.414 139.019C181.657 138.458 182.111 138.014 182.678 137.784C182.973 137.666 183.287 137.606 183.604 137.608V136.469C183.112 136.465 182.624 136.558 182.169 136.745C181.731 136.921 181.331 137.18 180.991 137.509Z" fill="white"/>
<path d="M188.081 142.525L185.51 136.693H184.123L187.812 144.767H188.336L192.043 136.693H190.653L188.081 142.525Z" fill="white"/>
<path d="M199.742 137.717C199.344 137.333 198.877 137.028 198.366 136.818C197.285 136.371 196.07 136.371 194.989 136.818C193.957 137.245 193.131 138.056 192.684 139.08C192.458 139.605 192.342 140.17 192.342 140.741C192.342 141.312 192.458 141.877 192.684 142.401C193.131 143.425 193.957 144.236 194.989 144.663C195.523 144.889 196.097 145.003 196.676 144.999C197.544 145.003 198.393 144.746 199.112 144.262C199.458 144.03 199.77 143.75 200.038 143.432C200.307 143.114 200.524 142.756 200.683 142.371H199.247C198.99 142.818 198.621 143.19 198.177 143.453C197.726 143.727 197.207 143.869 196.679 143.863C196.303 143.866 195.931 143.796 195.582 143.656C195.243 143.516 194.933 143.312 194.668 143.057C194.401 142.805 194.179 142.509 194.012 142.182C193.837 141.845 193.728 141.478 193.691 141.1H201.006C201.011 141.04 201.011 140.98 201.006 140.92V140.726C201.01 140.154 200.893 139.589 200.665 139.065C200.444 138.562 200.131 138.105 199.742 137.717ZM193.748 139.968C193.825 139.632 193.959 139.313 194.144 139.024C194.322 138.742 194.543 138.49 194.8 138.277C195.058 138.066 195.348 137.899 195.66 137.783C195.986 137.664 196.33 137.604 196.676 137.606C197.017 137.605 197.356 137.665 197.677 137.783C197.991 137.9 198.285 138.067 198.546 138.277C198.806 138.489 199.03 138.741 199.211 139.024C199.394 139.314 199.528 139.633 199.607 139.968H193.748Z" fill="white"/>
<defs>
<linearGradient id="paint0_linear_2_1083" x1="121.698" y1="75.7933" x2="120.721" y2="1.40846" gradientUnits="userSpaceOnUse">
<stop stop-color="#AE57E4"/>
<stop offset="0.03" stop-color="#A25CE7"/>
<stop offset="0.14" stop-color="#726DF1"/>
<stop offset="0.23" stop-color="#507AF9"/>
<stop offset="0.31" stop-color="#3B82FD"/>
<stop offset="0.37" stop-color="#3385FF"/>
<stop offset="0.41" stop-color="#348CF8"/>
<stop offset="0.59" stop-color="#38A3E0"/>
<stop offset="0.7" stop-color="#39ABD7"/>
<stop offset="1" stop-color="#3ECEB3"/>
</linearGradient>
<linearGradient id="paint1_linear_2_1083" x1="106.924" y1="75.9882" x2="105.947" y2="1.60337" gradientUnits="userSpaceOnUse">
<stop stop-color="#AE57E4"/>
<stop offset="0.03" stop-color="#A25CE7"/>
<stop offset="0.14" stop-color="#726DF1"/>
<stop offset="0.23" stop-color="#507AF9"/>
<stop offset="0.31" stop-color="#3B82FD"/>
<stop offset="0.37" stop-color="#3385FF"/>
<stop offset="0.41" stop-color="#348CF8"/>
<stop offset="0.59" stop-color="#38A3E0"/>
<stop offset="0.7" stop-color="#39ABD7"/>
<stop offset="1" stop-color="#3ECEB3"/>
</linearGradient>
<linearGradient id="paint2_linear_2_1083" x1="114.317" y1="75.889" x2="113.34" y2="1.5042" gradientUnits="userSpaceOnUse">
<stop stop-color="#AE57E4"/>
<stop offset="0.03" stop-color="#A25CE7"/>
<stop offset="0.14" stop-color="#726DF1"/>
<stop offset="0.23" stop-color="#507AF9"/>
<stop offset="0.31" stop-color="#3B82FD"/>
<stop offset="0.37" stop-color="#3385FF"/>
<stop offset="0.41" stop-color="#348CF8"/>
<stop offset="0.59" stop-color="#38A3E0"/>
<stop offset="0.7" stop-color="#39ABD7"/>
<stop offset="1" stop-color="#3ECEB3"/>
</linearGradient>
<linearGradient id="paint3_linear_2_1083" x1="114.14" y1="75.8917" x2="113.16" y2="1.50687" gradientUnits="userSpaceOnUse">
<stop stop-color="#AE57E4"/>
<stop offset="0.03" stop-color="#A25CE7"/>
<stop offset="0.14" stop-color="#726DF1"/>
<stop offset="0.23" stop-color="#507AF9"/>
<stop offset="0.31" stop-color="#3B82FD"/>
<stop offset="0.37" stop-color="#3385FF"/>
<stop offset="0.41" stop-color="#348CF8"/>
<stop offset="0.59" stop-color="#38A3E0"/>
<stop offset="0.7" stop-color="#39ABD7"/>
<stop offset="1" stop-color="#3ECEB3"/>
</linearGradient>
</defs>
</svg>
